<svg width="30" height="30" viewBox="0 0 30 30" fill="none" xmlns="http://www.w3.org/2000/svg">
<circle cx="15" cy="15" r="15" fill="#C91C1C"/>
<path d="M11.088 20V8.8H15.584C16.7467 8.8 17.632 9.072 18.24 9.616C18.8587 10.1493 19.168 10.8373 19.168 11.68C19.168 12.384 18.976 12.9493 18.592 13.376C18.2187 13.792 17.76 14.0747 17.216 14.224C17.856 14.352 18.384 14.672 18.8 15.184C19.216 15.6853 19.424 16.272 19.424 16.944C19.424 17.8293 19.104 18.56 18.464 19.136C17.824 19.712 16.9173 20 15.744 20H11.088ZM13.136 13.504H15.28C15.856 13.504 16.2987 13.3707 16.608 13.104C16.9173 12.8373 17.072 12.4587 17.072 11.968C17.072 11.4987 16.9173 11.1307 16.608 10.864C16.3093 10.5867 15.856 10.448 15.248 10.448H13.136V13.504ZM13.136 18.336H15.424C16.032 18.336 16.5013 18.1973 16.832 17.92C17.1733 17.632 17.344 17.232 17.344 16.72C17.344 16.1973 17.168 15.7867 16.816 15.488C16.464 15.1893 15.9893 15.04 15.392 15.04H13.136V18.336Z" fill="white"/>
</svg>
