<svg width="19" height="22" viewBox="0 0 19 22" fill="none" xmlns="http://www.w3.org/2000/svg">
<path d="M15.9939 9.42911L16.4938 9.44069L16.4938 9.44056L15.9939 9.42911ZM16.0459 7.32821L16.5455 7.35239L16.5458 7.33883L16.0459 7.32821ZM9.99642 1.00159L9.98519 1.50147L9.98531 1.50147L9.99642 1.00159ZM3.67144 7.04694L3.17152 7.03571L3.17146 7.04297L3.67144 7.04694ZM3.62773 9.15114L3.12786 9.13978L3.12785 9.14019L3.62773 9.15114ZM1.34783 15.0645L1.70551 15.4139L1.7057 15.4137L1.34783 15.0645ZM2.20898 17.1629L2.22029 16.6631L2.21974 16.663L2.20898 17.1629ZM17.0473 17.4986L17.0359 17.9985L17.0367 17.9985L17.0473 17.4986ZM12.5733 18.8819L13.0525 19.0246L13.2394 18.3968L12.5845 18.3821L12.5733 18.8819ZM6.87683 18.7541L6.88805 18.2542L6.22976 18.2394L6.39231 18.8775L6.87683 18.7541ZM18.3764 15.1078C17.9978 14.6833 17.53 14.2264 17.1446 13.3999C16.7606 12.5763 16.4494 11.3566 16.4938 9.44069L15.4941 9.41753C15.4469 11.4543 15.7766 12.8324 16.2383 13.8225C16.6986 14.8097 17.2812 15.3822 17.6301 15.7734L18.3764 15.1078ZM16.4938 9.44056C16.495 9.38684 16.5068 8.88743 16.5188 8.38858C16.5249 8.13918 16.531 7.89013 16.5359 7.69713C16.5383 7.60059 16.5405 7.51834 16.5421 7.45716C16.543 7.42654 16.5437 7.40154 16.5443 7.38283C16.5446 7.37345 16.5448 7.36599 16.545 7.36036C16.5452 7.35412 16.5453 7.35201 16.5453 7.35238L15.5465 7.30405C15.5411 7.41476 15.4964 9.31643 15.4941 9.41767L16.4938 9.44056ZM16.5458 7.33883C16.6242 3.64554 13.7007 0.583747 10.0075 0.501715L9.98531 1.50147C13.1252 1.57121 15.6127 4.17451 15.546 7.3176L16.5458 7.33883ZM10.0076 0.501718C6.31522 0.418812 3.25448 3.3429 3.17157 7.03571L4.17132 7.05816C4.24183 3.91789 6.84453 1.43095 9.98519 1.50147L10.0076 0.501718ZM3.17146 7.04297C3.17067 7.1421 3.13039 9.02807 3.12786 9.13978L4.1276 9.1625C4.13001 9.05645 4.17057 7.15964 4.17143 7.05091L3.17146 7.04297ZM3.12785 9.14019C3.08587 11.0569 2.71972 12.2607 2.29871 13.0654C1.87612 13.873 1.38797 14.3074 0.989971 14.7153L1.7057 15.4137C2.07151 15.0388 2.68 14.4937 3.18476 13.529C3.69109 12.5612 4.08298 11.1997 4.12761 9.16209L3.12785 9.14019ZM0.990155 14.7151C-0.0271897 15.7566 0.624866 17.6289 2.19822 17.6628L2.21974 16.663C1.57094 16.6491 1.26452 15.8654 1.70551 15.4139L0.990155 14.7151ZM2.19767 17.6628L17.0359 17.9985L17.0586 16.9988L2.22029 16.6631L2.19767 17.6628ZM17.0367 17.9985C17.7567 18.0138 18.3508 17.5847 18.6341 17.0217C18.924 16.4457 18.9028 15.7021 18.3776 15.1091L17.629 15.7721C17.8577 16.0304 17.8645 16.3265 17.7409 16.5721C17.6108 16.8307 17.3499 17.0049 17.0578 16.9988L17.0367 17.9985ZM9.6658 21.4992C11.2616 21.533 12.6183 20.483 13.0525 19.0246L12.094 18.7393C11.7842 19.7802 10.8182 20.5234 9.68696 20.4994L9.6658 21.4992ZM12.5845 18.3821L6.88805 18.2542L6.86561 19.2539L12.562 19.3818L12.5845 18.3821ZM6.39231 18.8775C6.76594 20.3442 8.06831 21.4615 9.66457 21.4992L9.68819 20.4995C8.56079 20.4728 7.62946 19.6831 7.36136 18.6306L6.39231 18.8775Z" fill="#25396F"/>
</svg>
