<svg width="50" height="49" viewBox="0 0 50 49" fill="none" xmlns="http://www.w3.org/2000/svg">
<path d="M21.9633 48.2631C31.2471 48.2631 38.7732 40.7386 38.7732 31.4566C38.7732 22.1747 31.2471 14.6501 21.9633 14.6501C12.6795 14.6501 5.15344 22.1747 5.15344 31.4566C5.15344 40.7386 12.6795 48.2631 21.9633 48.2631Z" fill="#FFB8B8"/>
<path d="M40.9532 19.0855C39.2071 14.6979 36.0086 11.0419 31.8916 8.72767C27.7747 6.41341 22.9884 5.58091 18.3316 6.36912L23.6317 10.6512C17.0466 10.8729 10.1148 10.4015 5.41303 15.0164C6.90988 14.9749 8.87173 18.1759 10.3686 18.1344C7.57006 18.1897 5.03243 20.1556 3.79632 22.6665C2.65149 25.246 2.38367 28.1296 3.03387 30.8758C3.5866 33.6191 7.80296 40.0461 8.93785 42.6043C8.74269 35.9188 21.9069 19.9723 28.3353 21.6365C25.0693 22.8481 22.2353 24.9994 20.1905 27.8191C24.5638 25.6125 29.5099 24.8034 34.3585 25.5015C35.4655 25.7553 36.6076 25.8192 37.7361 25.6905C38.4277 25.5537 39.0727 25.2419 39.6095 24.7849C40.1462 24.3279 40.5568 23.7409 40.802 23.08C41.0473 22.4192 41.1189 21.7065 41.0102 21.01C40.9014 20.3136 40.6159 19.6566 40.1808 19.102L40.9532 19.0855Z" fill="#2F2E41"/>
<path d="M21.9012 3.86008e-10C27.5904 0.000610088 33.0561 2.21505 37.1407 6.17441C41.2254 10.1338 43.6084 15.5272 43.785 21.2125H47.9089C48.2719 21.2125 48.6201 21.3567 48.8768 21.6133C49.1335 21.87 49.2777 22.2181 49.2777 22.581V28.0552C49.2777 28.4182 49.1335 28.7663 48.8768 29.0229C48.6201 29.2796 48.2719 29.4238 47.9089 29.4238H1.36883C1.00579 29.4238 0.657642 29.2796 0.400939 29.0229C0.144237 28.7663 1.08906e-05 28.4182 1.8075e-10 28.0552V21.8967C-1.16841e-05 19.0212 0.566493 16.1738 1.66713 13.5172C2.76776 10.8605 4.38098 8.44667 6.4147 6.41336C8.44842 4.38006 10.8628 2.76715 13.52 1.66675C16.1772 0.566341 19.0251 -1.70732e-05 21.9012 3.86008e-10Z" fill="#C91C1C"/>
</svg>
