<svg width="31" height="31" viewBox="0 0 31 31" fill="none" xmlns="http://www.w3.org/2000/svg">
<path d="M30.6443 28.8065L28.5148 26.677L7.61368 5.77589L1.83778 0L0 1.83778L3.93811 5.77589H3.00463C1.38563 5.77589 0.102099 7.07401 0.102099 8.69301L0.0875134 24.7372C0.0875134 26.3562 1.38563 27.6543 3.00463 27.6543H25.8165L28.8065 30.6443L30.6443 28.8065ZM29.1858 8.69301C29.2587 7.07401 27.9606 5.77589 26.3416 5.84882H20.5073V2.85878C20.5073 1.23978 19.2092 -0.0583424 17.5902 0.0145856H11.756C10.137 -0.0583424 8.83887 1.23978 8.83887 2.85878V3.32551L29.1858 23.7453V8.69301ZM17.5902 5.84882H11.6831V2.85878H17.5902V5.84882Z" fill="#C91C1C"/>
</svg>
